<?xml version="1.0" encoding="UTF-8" standalone="no"?>
<!-- Created with Inkscape (http://www.inkscape.org/) -->

<svg
   width="5.541667in"
   height="5.5416665in"
   viewBox="0 0 140.75834 140.75833"
   version="1.1"
   id="svg1"
   xml:space="preserve"
   xmlns="http://www.w3.org/2000/svg"
   xmlns:svg="http://www.w3.org/2000/svg"><defs
     id="defs1" /><g
     id="layer1"
     transform="translate(10.759503,-149.20415)"><path
       id="path23"
       style="fill:#ffffff;fill-opacity:1;stroke-width:0.382027"
       d="M 59.619663,149.20414 A 70.379166,70.379166 0 0 0 -10.759504,219.5833 70.379166,70.379166 0 0 0 59.619663,289.96247 70.379166,70.379166 0 0 0 129.99883,219.5833 70.379166,70.379166 0 0 0 59.619663,149.20414 Z m 25.77207,27.58178 c 2.78983,-0.0103 5.845566,0.56966 7.757666,2.8639 5.66069,6.26572 2.298462,18.63355 -7.573698,28.44013 -5.07587,5.04214 -13.597058,10.63653 -20.130038,13.21573 -0.82528,0.32581 -1.677964,0.79111 -1.894974,1.03353 -0.217,0.24241 -0.953603,1.84019 -1.636593,3.55069 -1.31675,3.29774 -4.772583,10.48201 -6.191353,12.87104 -0.66271,1.11593 -0.772612,1.4789 -0.501262,1.6552 0.62492,0.40602 9.235884,3.13916 12.368754,3.92586 4.5895,1.15247 13.657226,2.64227 14.070976,2.19418 0.46737,-0.50616 -1.146633,-7.4672 -1.144633,-7.4843 0.31741,-0.0977 19.800272,11.20025 19.798272,11.42721 0.002,0.2568 -19.481204,12.16358 -19.757964,11.89695 -0.03681,-0.0401 1.52241,-6.88441 1.1467,-7.28638 -0.1179,-0.12614 -1.962752,-0.10456 -4.896342,-0.40876 -6.57606,-0.68191 -10.815159,-1.31478 -22.132499,-5.47873 l -4.598169,-1.69189 -2.148706,2.12029 c -2.73649,2.70032 -4.745435,4.20386 -7.590235,5.6813 -3.36888,1.74961 -7.073214,2.33939 -9.506913,2.33939 -2.750673,0 -5.46227,-0.51232 -7.676534,-1.93321 -2.852803,-1.83064 -4.229716,-4.20485 -4.229716,-7.2931 0,-4.18011 2.152541,-7.4349 6.19032,-9.35963 5.04701,-2.4058 10.867922,-2.86653 18.091402,-1.43196 1.2043,0.23915 2.235923,0.38825 2.292883,0.33125 0.24012,-0.24035 4.857958,-9.48386 5.387268,-10.78384 l 0.57826,-1.42007 -2.048971,0.22945 c -1.12679,0.12615 -4.267048,0.32764 -5.884912,0.22944 -2.136786,-0.12972 -7.341867,-0.83086 -9.611817,-3.65094 -1.09903,-1.36537 -1.559976,-3.303 -0.687296,-4.11603 0.73033,-0.6804 1.005586,-0.68673 6.293156,-0.13901 3.40972,0.3532 4.584041,0.37466 6.672461,0.12248 3.02772,-0.36561 8.102184,-1.47888 8.591724,-1.88516 0.19198,-0.15933 0.905066,-1.62127 1.584916,-3.24838 6.87304,-16.44932 10.618354,-23.53085 15.419214,-29.15481 4.10867,-4.81312 8.631343,-7.26222 13.598653,-7.36182 z m 0.0067,6.76392 c -0.16368,0.009 -0.334023,0.0305 -0.510563,0.0636 -4.67967,0.87791 -8.993512,6.97957 -15.850712,22.42137 -0.91667,2.08346 -2.971395,6.72052 -2.971395,6.72052 3.35963,0.20171 13.241199,-8.32752 17.104899,-13.52321 1.69097,-2.27392 4.116115,-7.10708 4.665865,-9.29866 1.00692,-4.01409 0.01706,-6.52239 -2.438094,-6.38359 z M 33.805217,243.5746 c -1.11418,0.0367 -2.125474,0.14284 -2.842204,0.33383 -2.821049,0.75173 -4.101041,1.89481 -4.101041,3.66283 0,1.31308 0.342089,1.95254 1.405599,2.62516 1.20547,0.76239 4.554673,0.57057 6.630603,-0.37982 2.56927,-1.17625 6.515882,-5.09478 6.515882,-5.09478 0,0 -4.266329,-1.25722 -7.608839,-1.14722 z" /></g></svg>
