<?xml version="1.0" encoding="UTF-8" standalone="no"?>
<!-- Created with Inkscape (http://www.inkscape.org/) -->

<svg
   width="17.671144in"
   height="4.7148018in"
   viewBox="0 0 448.84707 119.75597"
   version="1.1"
   id="svg1"
   xml:space="preserve"
   xmlns="http://www.w3.org/2000/svg"
   xmlns:svg="http://www.w3.org/2000/svg"><defs
     id="defs1" /><g
     id="layer1"
     transform="translate(-18.993119,214.84166)"><rect
       style="font-variation-settings:'opsz' 32, 'wght' 300;fill:#0d1117;fill-opacity:1;stroke-width:0.262798"
       id="rect6"
       width="448.84711"
       height="119.75597"
       x="18.993118"
       y="-214.84166"
       ry="10.667918" /><text
       xml:space="preserve"
       style="font-style:normal;font-variant:normal;font-weight:normal;font-stretch:normal;font-size:78.4878px;line-height:1;font-family:Inter;-inkscape-font-specification:'Inter, @opsz=32,wght=300';font-variant-ligatures:normal;font-variant-caps:normal;font-variant-numeric:normal;font-variant-east-asian:normal;font-variation-settings:'opsz' 32, 'wght' 300;text-align:center;writing-mode:lr-tb;direction:ltr;text-anchor:middle;fill:#ffffff;fill-opacity:1;stroke-width:4.36045"
       x="299.13464"
       y="-126.81461"
       id="text5"><tspan
         id="tspan5"
         style="font-style:normal;font-variant:normal;font-weight:normal;font-stretch:normal;font-size:78.4878px;font-family:Inter;-inkscape-font-specification:'Inter, @opsz=32,wght=300';font-variant-ligatures:normal;font-variant-caps:normal;font-variant-numeric:normal;font-variant-east-asian:normal;font-variation-settings:'opsz' 32, 'wght' 300;fill:#ffffff;fill-opacity:1;stroke-width:4.36045"
         x="299.13464"
         y="-126.81461">Latents</tspan></text><path
       id="path6"
       style="fill:#ffffff;fill-opacity:1;stroke-width:0.263165"
       d="m 89.699777,-203.44533 a 48.481656,48.481656 0 0 0 -48.481659,48.48165 48.481656,48.481656 0 0 0 48.481659,48.48166 48.481656,48.481656 0 0 0 48.481663,-48.48166 48.481656,48.481656 0 0 0 -48.481663,-48.48165 z m 17.753443,19.00009 c 1.92182,-0.007 4.0268,0.39242 5.34398,1.97284 3.89945,4.31622 1.58332,12.83598 -5.21725,19.59137 -3.49658,3.47335 -9.366523,7.32712 -13.866853,9.10384 -0.56851,0.22443 -1.15589,0.54497 -1.30538,0.71196 -0.14948,0.16699 -0.65691,1.26764 -1.12739,2.44594 -0.90706,2.27169 -3.28766,7.22067 -4.265,8.8664 -0.45652,0.76871 -0.53222,1.01875 -0.3453,1.1402 0.43049,0.27969 6.36226,2.16245 8.52039,2.70438 3.16154,0.7939 9.407973,1.82017 9.692983,1.5115 0.32196,-0.34868 -0.78987,-5.14389 -0.78849,-5.15567 0.21866,-0.0673 13.63969,7.71545 13.63831,7.87179 0.002,0.1769 -13.4199,8.37905 -13.61054,8.19538 -0.0254,-0.0276 1.04872,-4.74242 0.78991,-5.01932 -0.0812,-0.0868 -1.35206,-0.072 -3.37291,-0.28158 -4.530013,-0.46975 -7.450173,-0.90571 -15.246283,-3.7741 l -3.16751,-1.16548 -1.48016,1.46059 c -1.88507,1.86015 -3.26896,2.89588 -5.228642,3.91364 -2.3207,1.20524 -4.872481,1.61152 -6.548968,1.61152 -1.894839,0 -3.76276,-0.35292 -5.288086,-1.33172 -1.965192,-1.26106 -2.913698,-2.89657 -2.913698,-5.02395 0,-2.87952 1.482808,-5.12163 4.264287,-6.44751 3.476702,-1.65727 7.486517,-1.97465 12.462507,-0.98643 0.8296,0.16475 1.54025,0.26745 1.57949,0.22819 0.16541,-0.16557 3.34647,-6.53308 3.71109,-7.42859 l 0.39834,-0.97824 -1.41146,0.15806 c -0.7762,0.0869 -2.93941,0.2257 -4.0539,0.15806 -1.47195,-0.0894 -5.057547,-0.57236 -6.621233,-2.51501 -0.757082,-0.94055 -1.074611,-2.27532 -0.473453,-2.83539 0.503097,-0.4687 0.692712,-0.47305 4.335127,-0.0957 2.348829,0.24331 3.157779,0.25809 4.596419,0.0843 2.08568,-0.25185 5.5813,-1.01874 5.91853,-1.29862 0.13225,-0.10975 0.62346,-1.11682 1.09178,-2.23768 4.73459,-11.33135 7.31461,-16.20955 10.62175,-20.08369 2.830313,-3.31559 5.945813,-5.00269 9.367613,-5.0713 z m 0.005,4.65942 c -0.11275,0.006 -0.23009,0.021 -0.35171,0.0438 -3.22365,0.60476 -6.1953,4.80797 -10.918983,15.44527 -0.63146,1.43522 -2.04689,4.62952 -2.04689,4.62952 2.31433,0.13895 9.121393,-5.73652 11.782953,-9.31565 1.16485,-1.56642 2.83544,-4.89581 3.21414,-6.40551 0.69363,-2.76516 0.0118,-4.49303 -1.67951,-4.39743 z m -35.540905,41.34888 c -0.767518,0.0253 -1.464162,0.0984 -1.957892,0.22996 -1.943318,0.51784 -2.825058,1.30527 -2.825058,2.52319 0,0.90454 0.235653,1.34503 0.968267,1.80838 0.830403,0.52519 3.137548,0.39305 4.567581,-0.26165 1.769877,-0.81027 4.488554,-3.5096 4.488554,-3.5096 0,0 -2.938918,-0.86605 -5.241452,-0.79028 z" /></g></svg>
