<?xml version="1.0" encoding="UTF-8" standalone="no"?>
<!-- Created with Inkscape (http://www.inkscape.org/) -->

<svg
   width="17.671144in"
   height="4.7148018in"
   viewBox="0 0 448.84707 119.75597"
   version="1.1"
   id="svg1"
   xml:space="preserve"
   xmlns="http://www.w3.org/2000/svg"
   xmlns:svg="http://www.w3.org/2000/svg"><defs
     id="defs1" /><g
     id="layer1"
     transform="translate(-18.993119,214.84166)"><rect
       style="font-variation-settings:'opsz' 32, 'wght' 300;fill:#0d1117;fill-opacity:1;stroke-width:0.262798"
       id="rect6"
       width="448.84711"
       height="119.75597"
       x="18.993118"
       y="-214.84166"
       ry="10.667918" /><path
       d="m 182.80177,-126.81461 v -57.10294 h 5.21208 v 52.42739 h 28.12991 v 4.67555 z m 52.31243,0.61318 q -3.83241,0 -7.01332,-1.30302 -3.1809,-1.34134 -5.05878,-3.98571 -1.87788,-2.68268 -1.87788,-6.63007 0,-3.1809 1.18805,-5.2504 1.22637,-2.06951 3.41084,-3.3342 2.18448,-1.30302 5.17376,-2.03118 2.98928,-0.72816 6.55342,-1.18805 3.79409,-0.53654 6.17019,-0.88145 2.37609,-0.38324 3.48749,-1.1114 1.14973,-0.76649 1.14973,-2.33777 v -0.61319 q 0,-2.52939 -1.2647,-4.48392 -1.2647,-1.95453 -3.60247,-3.06593 -2.29944,-1.14973 -5.4037,-1.14973 -3.10425,0 -5.557,1.1114 -2.41442,1.07308 -3.87073,2.98929 -1.41799,1.9162 -1.53297,4.2923 H 222.084 q 0.11497,-3.67912 2.18447,-6.55343 2.0695,-2.91263 5.59532,-4.59889 3.56415,-1.68626 8.16304,-1.68626 3.37252,0 6.17019,0.9581 2.79766,0.9581 4.79051,2.72101 2.03118,1.76291 3.10425,4.17733 1.1114,2.3761 1.1114,5.28873 v 28.05326 h -4.90548 v -6.63008 h -0.11498 q -0.88145,1.87789 -2.56771,3.56415 -1.64794,1.64793 -4.25398,2.68269 -2.60604,0.99642 -6.24683,0.99642 z m 0.61318,-4.48392 q 4.06236,0 6.86002,-1.53296 2.79766,-1.53297 4.25398,-4.21566 1.45632,-2.72101 1.45632,-6.20851 v -5.67197 q -0.53654,0.49822 -1.57129,0.88146 -1.03475,0.34492 -2.49107,0.68983 -1.45632,0.3066 -3.21923,0.57487 -1.76291,0.26826 -3.75576,0.53653 -3.37252,0.45989 -5.86359,1.37967 -2.49107,0.88146 -3.87074,2.41442 -1.34134,1.49464 -1.34134,3.94739 0,2.29944 1.22637,3.90906 1.22637,1.60961 3.37252,2.45274 2.14615,0.84313 4.94381,0.84313 z m 43.03799,-36.59954 v 4.33063 h -20.27346 v -4.33063 z m -13.37512,-11.03734 h 4.94381 v 42.4248 q 0,2.56772 1.1114,3.67912 1.14972,1.07307 3.79409,1.07307 0.84313,0 1.76291,0 0.9581,0 1.76291,0 v 4.33063 q -0.91978,0 -1.95453,0 -1.03475,0 -1.95453,0 -4.71387,0 -7.08997,-2.18448 -2.37609,-2.18447 -2.37609,-6.43845 z m 35.37317,52.31242 q -5.67197,0 -9.81098,-2.68269 -4.139,-2.72101 -6.40012,-7.4732 -2.2228,-4.75219 -2.2228,-10.84573 0,-6.13185 2.29944,-10.88405 2.33778,-4.75219 6.43846,-7.4732 4.10068,-2.72101 9.38941,-2.72101 4.139,0 7.43488,1.53296 3.33419,1.49464 5.71029,4.2923 2.41442,2.79767 3.67912,6.59175 1.26469,3.79409 1.26469,8.35466 v 1.53297 h -33.61025 v -4.33063 h 30.81259 l -2.0695,1.41799 q 0,-4.48392 -1.68626,-7.81812 -1.64794,-3.37252 -4.63722,-5.2504 -2.95096,-1.87788 -6.89834,-1.87788 -3.94739,0 -6.93667,1.95453 -2.98928,1.9162 -4.67554,5.36537 -1.64794,3.44917 -1.64794,8.08639 v 1.83956 q 0,4.67554 1.64794,8.27801 1.64793,3.56414 4.67554,5.59532 3.06593,1.99286 7.24326,1.99286 3.06593,0 5.557,-1.03475 2.49106,-1.03476 4.17733,-2.91264 1.72458,-1.9162 2.41442,-4.4456 h 4.94381 q -0.80481,3.87074 -3.25755,6.78337 -2.41442,2.91264 -6.01689,4.52225 -3.56414,1.60961 -7.81812,1.60961 z m 30.16108,-25.37057 v 24.56577 h -4.90549 v -40.47028 h 4.82884 v 9.61936 h -1.37966 q 1.76291,-5.28873 5.48035,-7.81812 3.75576,-2.52939 8.54627,-2.52939 4.21566,0 7.58818,1.83955 3.37252,1.80124 5.32705,5.28873 1.99286,3.44917 1.99286,8.50796 v 25.56219 h -4.94381 v -25.2556 q 0,-5.44202 -2.91264,-8.39298 -2.87431,-2.95096 -7.85644,-2.95096 -3.29588,0 -5.97857,1.34134 -2.64436,1.34135 -4.21565,4.02404 -1.57129,2.68269 -1.57129,6.66839 z m 53.0789,-15.90451 v 4.33063 h -20.27346 v -4.33063 z m -13.37511,-11.03734 h 4.94381 v 42.4248 q 0,2.56772 1.1114,3.67912 1.14972,1.07307 3.79408,1.07307 0.84314,0 1.76291,0 0.95811,0 1.76291,0 v 4.33063 q -0.91977,0 -1.95453,0 -1.03475,0 -1.95453,0 -4.71386,0 -7.08996,-2.18448 -2.37609,-2.18447 -2.37609,-6.43845 z m 32.76713,52.31242 q -4.36895,0 -7.81813,-1.45631 -3.41084,-1.49464 -5.48034,-4.36895 -2.03118,-2.87431 -2.26113,-7.08997 h 4.90549 q 0.30659,4.06236 2.98928,6.32348 2.72101,2.26113 7.54985,2.26113 4.75219,0 7.51153,-2.06951 2.75934,-2.10782 2.75934,-5.4037 0,-2.64436 -1.87788,-4.06235 -1.87789,-1.418 -5.13544,-2.14615 l -6.66839,-1.57129 q -5.48035,-1.30302 -8.31634,-3.94739 -2.83598,-2.64436 -2.83598,-6.93666 0,-3.41085 1.80123,-6.01689 1.83956,-2.64436 5.09711,-4.10068 3.25755,-1.49464 7.51153,-1.49464 4.17733,0 7.39655,1.57129 3.21923,1.57129 5.09711,4.44559 1.91621,2.87431 2.0695,6.89835 h -4.82884 q -0.19162,-3.94739 -2.75933,-6.24683 -2.56772,-2.33778 -6.97499,-2.33778 -4.2923,0 -6.89835,2.06951 -2.56771,2.0695 -2.56771,5.21208 0,2.64436 1.87788,4.17733 1.91621,1.49464 5.36538,2.29944 l 6.70672,1.57129 q 5.51867,1.30302 8.20136,3.79409 2.68269,2.49107 2.68269,6.74505 0,3.64079 -1.95453,6.32348 -1.91621,2.68268 -5.32705,4.139 -3.41085,1.41799 -7.81812,1.41799 z"
       id="text5"
       style="font-size:78.4878px;line-height:1;font-family:Inter;-inkscape-font-specification:'Inter, @opsz=32,wght=300';font-variation-settings:'opsz' 32, 'wght' 300;text-align:center;text-anchor:middle;fill:#ffffff;stroke-width:4.36045"
       aria-label="Latents" /><path
       id="path6"
       style="fill:#ffffff;fill-opacity:1;stroke-width:0.263165"
       d="m 89.699777,-203.44533 a 48.481656,48.481656 0 0 0 -48.481659,48.48165 48.481656,48.481656 0 0 0 48.481659,48.48166 48.481656,48.481656 0 0 0 48.481663,-48.48166 48.481656,48.481656 0 0 0 -48.481663,-48.48165 z m 17.753443,19.00009 c 1.92182,-0.007 4.0268,0.39242 5.34398,1.97284 3.89945,4.31622 1.58332,12.83598 -5.21725,19.59137 -3.49658,3.47335 -9.366523,7.32712 -13.866853,9.10384 -0.56851,0.22443 -1.15589,0.54497 -1.30538,0.71196 -0.14948,0.16699 -0.65691,1.26764 -1.12739,2.44594 -0.90706,2.27169 -3.28766,7.22067 -4.265,8.8664 -0.45652,0.76871 -0.53222,1.01875 -0.3453,1.1402 0.43049,0.27969 6.36226,2.16245 8.52039,2.70438 3.16154,0.7939 9.407973,1.82017 9.692983,1.5115 0.32196,-0.34868 -0.78987,-5.14389 -0.78849,-5.15567 0.21866,-0.0673 13.63969,7.71545 13.63831,7.87179 0.002,0.1769 -13.4199,8.37905 -13.61054,8.19538 -0.0254,-0.0276 1.04872,-4.74242 0.78991,-5.01932 -0.0812,-0.0868 -1.35206,-0.072 -3.37291,-0.28158 -4.530013,-0.46975 -7.450173,-0.90571 -15.246283,-3.7741 l -3.16751,-1.16548 -1.48016,1.46059 c -1.88507,1.86015 -3.26896,2.89588 -5.228642,3.91364 -2.3207,1.20524 -4.872481,1.61152 -6.548968,1.61152 -1.894839,0 -3.76276,-0.35292 -5.288086,-1.33172 -1.965192,-1.26106 -2.913698,-2.89657 -2.913698,-5.02395 0,-2.87952 1.482808,-5.12163 4.264287,-6.44751 3.476702,-1.65727 7.486517,-1.97465 12.462507,-0.98643 0.8296,0.16475 1.54025,0.26745 1.57949,0.22819 0.16541,-0.16557 3.34647,-6.53308 3.71109,-7.42859 l 0.39834,-0.97824 -1.41146,0.15806 c -0.7762,0.0869 -2.93941,0.2257 -4.0539,0.15806 -1.47195,-0.0894 -5.057547,-0.57236 -6.621233,-2.51501 -0.757082,-0.94055 -1.074611,-2.27532 -0.473453,-2.83539 0.503097,-0.4687 0.692712,-0.47305 4.335127,-0.0957 2.348829,0.24331 3.157779,0.25809 4.596419,0.0843 2.08568,-0.25185 5.5813,-1.01874 5.91853,-1.29862 0.13225,-0.10975 0.62346,-1.11682 1.09178,-2.23768 4.73459,-11.33135 7.31461,-16.20955 10.62175,-20.08369 2.830313,-3.31559 5.945813,-5.00269 9.367613,-5.0713 z m 0.005,4.65942 c -0.11275,0.006 -0.23009,0.021 -0.35171,0.0438 -3.22365,0.60476 -6.1953,4.80797 -10.918983,15.44527 -0.63146,1.43522 -2.04689,4.62952 -2.04689,4.62952 2.31433,0.13895 9.121393,-5.73652 11.782953,-9.31565 1.16485,-1.56642 2.83544,-4.89581 3.21414,-6.40551 0.69363,-2.76516 0.0118,-4.49303 -1.67951,-4.39743 z m -35.540905,41.34888 c -0.767518,0.0253 -1.464162,0.0984 -1.957892,0.22996 -1.943318,0.51784 -2.825058,1.30527 -2.825058,2.52319 0,0.90454 0.235653,1.34503 0.968267,1.80838 0.830403,0.52519 3.137548,0.39305 4.567581,-0.26165 1.769877,-0.81027 4.488554,-3.5096 4.488554,-3.5096 0,0 -2.938918,-0.86605 -5.241452,-0.79028 z" /></g></svg>
