<?xml version="1.0" encoding="UTF-8" standalone="no"?>
<!-- Created with Inkscape (http://www.inkscape.org/) -->

<svg
   width="5.541666in"
   height="5.5416665in"
   viewBox="0 0 140.75832 140.75833"
   version="1.1"
   id="svg1"
   xml:space="preserve"
   xmlns="http://www.w3.org/2000/svg"
   xmlns:svg="http://www.w3.org/2000/svg"><defs
     id="defs1" /><g
     id="layer1"
     transform="translate(-155.92799,-149.20415)"><path
       id="path24"
       style="fill:#000000;fill-opacity:1;stroke-width:0.382027"
       d="m 226.30716,149.20414 a 70.379166,70.379166 0 0 0 -70.37916,70.37916 70.379166,70.379166 0 0 0 70.37916,70.37917 70.379166,70.379166 0 0 0 70.37917,-70.37917 70.379166,70.379166 0 0 0 -70.37917,-70.37916 z m 25.77207,27.58178 c 2.78983,-0.0103 5.84557,0.56966 7.75767,2.8639 5.66069,6.26572 2.29846,18.63355 -7.5737,28.44013 -5.07587,5.04214 -13.59706,10.63653 -20.13004,13.21573 -0.82528,0.32581 -1.67796,0.79111 -1.89497,1.03353 -0.217,0.24241 -0.9536,1.84019 -1.63659,3.55069 -1.31675,3.29774 -4.77259,10.48201 -6.19136,12.87104 -0.66271,1.11593 -0.77261,1.4789 -0.50126,1.6552 0.62492,0.40602 9.23588,3.13916 12.36875,3.92586 4.5895,1.15247 13.65723,2.64227 14.07098,2.19418 0.46737,-0.50616 -1.14663,-7.4672 -1.14463,-7.4843 0.31741,-0.0977 19.80027,11.20025 19.79827,11.42721 0.002,0.2568 -19.4812,12.16358 -19.75796,11.89695 -0.0368,-0.0401 1.52241,-6.88441 1.1467,-7.28638 -0.1179,-0.12614 -1.96276,-0.10456 -4.89635,-0.40876 -6.57606,-0.68191 -10.81516,-1.31478 -22.1325,-5.47873 l -4.59816,-1.69189 -2.14871,2.12029 c -2.73649,2.70032 -4.74544,4.20386 -7.59024,5.6813 -3.36888,1.74961 -7.07321,2.33939 -9.50691,2.33939 -2.75067,0 -5.46227,-0.51232 -7.67653,-1.93321 -2.85281,-1.83064 -4.22972,-4.20485 -4.22972,-7.2931 0,-4.18011 2.15254,-7.4349 6.19032,-9.35963 5.04701,-2.4058 10.86792,-2.86653 18.0914,-1.43196 1.2043,0.23915 2.23593,0.38825 2.29289,0.33125 0.24012,-0.24035 4.85795,-9.48386 5.38726,-10.78384 l 0.57826,-1.42007 -2.04897,0.22945 c -1.12679,0.12615 -4.26704,0.32764 -5.88491,0.22944 -2.13678,-0.12972 -7.34187,-0.83086 -9.61182,-3.65094 -1.09903,-1.36537 -1.55997,-3.303 -0.68729,-4.11603 0.73033,-0.6804 1.00558,-0.68673 6.29315,-0.13901 3.40972,0.3532 4.58405,0.37466 6.67247,0.12248 3.02772,-0.36561 8.10218,-1.47888 8.59172,-1.88516 0.19198,-0.15933 0.90507,-1.62127 1.58492,-3.24838 6.87304,-16.44932 10.61835,-23.53085 15.41921,-29.15481 4.10867,-4.81312 8.63134,-7.26222 13.59865,-7.36182 z m 0.007,6.76392 c -0.16368,0.009 -0.33402,0.0305 -0.51056,0.0636 -4.67967,0.87791 -8.99351,6.97957 -15.85071,22.42137 -0.91667,2.08346 -2.9714,6.72052 -2.9714,6.72052 3.35963,0.20171 13.2412,-8.32752 17.1049,-13.52321 1.69097,-2.27392 4.11612,-7.10708 4.66587,-9.29866 1.00692,-4.01409 0.0171,-6.52239 -2.4381,-6.38359 z m -51.59321,60.02476 c -1.11418,0.0367 -2.12548,0.14284 -2.84221,0.33383 -2.82105,0.75173 -4.10104,1.89481 -4.10104,3.66283 0,1.31308 0.34209,1.95254 1.4056,2.62516 1.20547,0.76239 4.55467,0.57057 6.6306,-0.37982 2.56927,-1.17625 6.51589,-5.09478 6.51589,-5.09478 0,0 -4.26633,-1.25722 -7.60884,-1.14722 z" /></g></svg>
